# xmcd
#
# Track frame offsets: 
#        150
#        20053
#        39690
#        51605
#        65054
#        79166
#        97780
#        115965
#        132518
#        145781
#        169701
#        186964
#        198226
#        216746
#        236650
#        251272
#        264582
#
# Disc length: 3730 seconds
#
# Revision: 0
# Processed by: cddbd v1.4PL0 Copyright (c) Steve Scherf et al.
# Submitted via: ExactAudioCopy v0.90b3
#
DISCID=050e9011
DTITLE=Townes Van Zandt - The Best of Townes Van Zandt
DYEAR=2002
DGENRE=Folk
TTITLE0=Tecumseh Valley
TTITLE1=Our Mother the Mountain
TTITLE2=Snake Mountain Blues
TTITLE3=Waiting Around To Die
TTITLE4=White Freightliner Blues
TTITLE5=Tower Song
TTITLE6=Who Do You Love
TTITLE7=Pancho and Lefty
TTITLE8=Dead Flowers
TTITLE9=For the Sake of the Song
TTITLE10=If I Needed You
TTITLE11=Only Him or Me
TTITLE12=The Ballad of Ira Hayes
TTITLE13=Flyin' Shoes
TTITLE14=To Live is to Fly
TTITLE15=Buckskin Stallion
TTITLE16=No Place to Fall
EXTD=
EXTT0=
EXTT1=
EXTT2=
EXTT3=
EXTT4=
EXTT5=
EXTT6=
EXTT7=
EXTT8=
EXTT9=
EXTT10=
EXTT11=
EXTT12=
EXTT13=
EXTT14=
EXTT15=
EXTT16=
PLAYORDER=
